<?xml version="1.0" ?><svg enable-background="new 0 0 64 64" height="64px" version="1.1" viewBox="0 0 64 64" width="64px" xml:space="preserve" xmlns="http://www.w3.org/2000/svg" xmlns:xlink="http://www.w3.org/1999/xlink"><g id="_x31_-Call"/><g id="_x32_-24_Hours_Call"/><g id="_x33_-Sending_Call"/><g id="_x34_-Incoming_Call"/><g id="_x35_-Talk_On_Phone"/><g id="_x36_-Block_Call"/><g id="_x37_-Hold_Call"/><g id="_x38_-Mute_Call"/><g id="_x39_-Phone_Book"/><g id="_x31_0-Add_Contact"/><g id="_x31_1-Delete_Contact"/><g id="_x31_2-Mail"/><g id="_x31_3-Message_Read"/><g id="_x31_4-Email"/><g id="_x31_5-Send_Mail"/><g id="_x31_6-Important_Mail"/><g id="_x31_7-Mail_Chain"/><g id="_x31_8-Messaging"/><g id="_x31_9-Sending"/><g id="_x32_0-Chat"/><g id="_x32_1-Mail_Attachment"/><g id="_x32_2-Mobile_Link"/><g id="_x32_3-Smartphone"/><g id="_x32_4-Social_Media"/><g id="_x32_5-Support"/><g id="_x32_6-Links"/><g id="_x32_7-Phone"/><g id="_x32_8-Phone-2"/><g id="_x32_9-Map"/><g id="_x33_0-Location"/><g id="_x33_1-Write"/><g id="_x33_2-World"/><g id="_x33_3-Home"/><g id="_x33_4-Calendar"/><g id="_x33_5-Website"/><g id="_x33_6-Info"/><g id="_x33_7-Bull_Horn"><g><path d="M31.9220886,16.5h-12c-2.7568359,0-5,2.2431641-5,5v10c0,2.7568359,2.2431641,5,5,5h12c2.7568359,0,5-2.2431641,5-5v-10    C36.9220886,18.7431641,34.6789246,16.5,31.9220886,16.5z"/><path d="M38.9220886,21.5v10c0,1.4399414-0.4378662,2.7792358-1.1864014,3.8932495    c3.6019287,0.270752,6.9074097,1.4076538,9.3436279,3.1730957V14.4458618    c-2.4385376,1.7609253-5.7441406,2.8939209-9.3428955,3.1619873C38.4844666,18.7216797,38.9220886,20.0605469,38.9220886,21.5z"/><path d="M52.0793152,9.5c-1.6542969,0-3,1.3457031-3,3v28c0,1.6542969,1.3457031,3,3,3s3-1.3457031,3-3v-28    C55.0793152,10.8457031,53.7336121,9.5,52.0793152,9.5z"/><path d="M19.9206848,51.5c0,1.6499634,1.3500366,3,3,3h2c1.6600342,0,3-1.3500366,3-3v-13h-8V51.5z"/><path d="M8.9206848,26.5c0,2.4199829,1.7200317,4.4400024,4,4.8999634v-9.7999878    C10.6407166,22.0599976,8.9206848,24.0799561,8.9206848,26.5z"/></g></g><g id="_x33_8-Profile"/><g id="_x33_9-Quote__x26__Answer"/><g id="_x34_0-Notification"/><g id="_x34_1-Share"/><g id="_x34_2-Time"/></svg>